# xmcd CD database file
#
# Track frame offsets:
#	150
#	13183
#	35220
#	53834
#	71692
#	84738
#	103625
#	115803
#	129439
#	142284
#	167063
#	176188
#
# Disc length: 2485 seconds
#
# Revision: 0
# Processed by: cddbd v1.5.2PL0 Copyright (c) Steve Scherf et al.
# Submitted via: CDex 1.95
#
DISCID=b309b30c
DTITLE=Lambert - Stay In The Dark
DYEAR=2015
DGENRE=Jazz
TTITLE0=Talk!
TTITLE1=As Ballad
TTITLE2=Locked
TTITLE3=Stay In The Dark
TTITLE4=Lose
TTITLE5=Noise
TTITLE6=Cole
TTITLE7=Birds
TTITLE8=Money and Love
TTITLE9=H
TTITLE10=The Sick System
TTITLE11=The Ship
EXTD=YEAR: 2015
EXTT0=
EXTT1=
EXTT2=
EXTT3=
EXTT4=
EXTT5=
EXTT6=
EXTT7=
EXTT8=
EXTT9=
EXTT10=
EXTT11=
PLAYORDER=
